<svg id="SvgjsSvg1069" width="288" height="288" xmlns="http://www.w3.org/2000/svg" version="1.1" xmlns:xlink="http://www.w3.org/1999/xlink" xmlns:svgjs="http://svgjs.com/svgjs"><defs id="SvgjsDefs1070"></defs><g id="SvgjsG1071"><svg xmlns="http://www.w3.org/2000/svg" width="288" height="288" viewBox="0 0 220.669 218"><defs><linearGradient id="b" x1=".5" x2=".5" y2="1" gradientUnits="objectBoundingBox"><stop offset="0" stop-color="#9a6ec1" class="stopColor6ec177 svgShape"></stop><stop offset="1" stop-color="#6c2ca4" class="stopColor2ca43c svgShape"></stop></linearGradient><filter id="a" width="220.669" height="218" x="0" y="0" filterUnits="userSpaceOnUse"><feOffset dy="3"></feOffset><feGaussianBlur result="blur" stdDeviation="3"></feGaussianBlur><feFlood flood-opacity=".161"></feFlood><feComposite in2="blur" operator="in"></feComposite><feComposite in="SourceGraphic"></feComposite></filter></defs><g filter="url(#a)" fill="#000000" class="color000 svgShape"><path fill="url(#b)" d="M236.884,32.385,144.932.6a11.136,11.136,0,0,0-7.2,0L45.785,32.385C42.283,33.6,40,36.443,40,39.6V78.243c0,53.208,38.624,101.07,97.789,121.178a11.142,11.142,0,0,0,7.091,0c59.164-20.107,97.789-67.969,97.789-121.178V39.6C242.669,36.443,240.386,33.6,236.884,32.385ZM223.9,78.243c0,45.232-31.9,86.872-82.569,105.459-49.313-18.09-82.569-59-82.569-105.459V44.816l82.569-28.545L223.9,44.816Zm-92.94,26.334L171.293,71a10.762,10.762,0,0,1,13.269,0,6.926,6.926,0,0,1,0,11.048l-46.963,39.1a10.762,10.762,0,0,1-13.269,0L98.107,99.316a6.926,6.926,0,0,1,0-11.048c3.664-3.051,13.269,0,13.269,0Z" data-name="Path 3" transform="translate(-31 6)"></path></g></svg></g></svg>