<svg id="SvgjsSvg1079" width="288" height="288" xmlns="http://www.w3.org/2000/svg" version="1.1" xmlns:xlink="http://www.w3.org/1999/xlink" xmlns:svgjs="http://svgjs.com/svgjs"><defs id="SvgjsDefs1080"></defs><g id="SvgjsG1081"><svg xmlns="http://www.w3.org/2000/svg" width="288" height="288" viewBox="0 0 238.15 224.199"><defs><filter id="a" width="238.15" height="224.199" x="0" y="0" filterUnits="userSpaceOnUse"><feOffset dy="3"></feOffset><feGaussianBlur result="blur" stdDeviation="3"></feGaussianBlur><feFlood flood-opacity=".161"></feFlood><feComposite in2="blur" operator="in"></feComposite><feComposite in="SourceGraphic"></feComposite></filter><filter id="b" width="106.757" height="106.756" x="65.697" y="58.725" filterUnits="userSpaceOnUse"><feOffset dy="3"></feOffset><feGaussianBlur result="blur-2" stdDeviation="3"></feGaussianBlur><feFlood flood-opacity=".161"></feFlood><feComposite in2="blur-2" operator="in"></feComposite><feComposite in="SourceGraphic"></feComposite></filter></defs><g transform="translate(12 -7.814)" fill="#000000" class="color000 svgShape"><g data-name="Group 2" fill="#000000" class="color000 svgShape"><g data-name="Group 1" filter="url(#a)" transform="translate(-12 7.817)" fill="#000000" class="color000 svgShape"><path fill="#9a6ec1" stroke="#9a6ec1" stroke-width="6" d="M213.294,103.488a17.542,17.542,0,0,0-8.361-12.831,17.228,17.228,0,0,0-15.062-1.338,8.587,8.587,0,0,1-10.708-4.81,79.292,79.292,0,0,0-7.95-13.822,8.525,8.525,0,0,1,1.2-11.707,17.153,17.153,0,0,0,6.291-13.67,17.51,17.51,0,0,0-6.978-13.652,106.9,106.9,0,0,0-23.084-13.331,17.538,17.538,0,0,0-15.365.776,17.157,17.157,0,0,0-8.682,12.269A8.518,8.518,0,0,1,115,38.252a75.761,75.761,0,0,0-15.838,0,8.536,8.536,0,0,1-9.592-6.88A17.141,17.141,0,0,0,80.887,19.1a17.512,17.512,0,0,0-15.365-.776A106.738,106.738,0,0,0,42.429,31.659,17.5,17.5,0,0,0,35.46,45.3a17.212,17.212,0,0,0,6.3,13.7,8.531,8.531,0,0,1,1.2,11.7A78.783,78.783,0,0,0,35,84.518,8.6,8.6,0,0,1,24.19,89.292,17.239,17.239,0,0,0,9.226,90.666,17.475,17.475,0,0,0,.866,103.5,105.316,105.316,0,0,0,0,116.917a107.264,107.264,0,0,0,.857,13.429,17.542,17.542,0,0,0,8.361,12.831,17.255,17.255,0,0,0,15.062,1.338,8.577,8.577,0,0,1,10.708,4.81,79.3,79.3,0,0,0,7.95,13.822,8.525,8.525,0,0,1-1.2,11.707,17.153,17.153,0,0,0-6.291,13.67,17.51,17.51,0,0,0,6.978,13.652,106.892,106.892,0,0,0,23.084,13.331,17.54,17.54,0,0,0,15.365-.776,17.158,17.158,0,0,0,8.682-12.269,8.538,8.538,0,0,1,9.592-6.88,75.769,75.769,0,0,0,15.838,0c4.774-.473,8.852,2.463,9.592,6.88a17.141,17.141,0,0,0,8.682,12.269,17.476,17.476,0,0,0,8.459,2.186,17.73,17.73,0,0,0,6.9-1.41A107.275,107.275,0,0,0,171.7,202.176a17.466,17.466,0,0,0,6.978-13.643,17.187,17.187,0,0,0-6.291-13.688,8.531,8.531,0,0,1-1.2-11.7,78.784,78.784,0,0,0,7.959-13.822,8.594,8.594,0,0,1,10.708-4.81l.1.036a17.171,17.171,0,0,0,14.964-1.374,17.491,17.491,0,0,0,8.361-12.84,106.228,106.228,0,0,0,.865-13.42A107.963,107.963,0,0,0,213.294,103.488Zm-8.86,25.716a8.619,8.619,0,0,1-4.1,6.326,8.313,8.313,0,0,1-7.326.624l-.054-.018a17.529,17.529,0,0,0-21.933,9.548,70.018,70.018,0,0,1-7.058,12.26c-5.541,7.709-4.345,17.944,2.775,23.8a8.3,8.3,0,0,1,3.034,6.612,8.605,8.605,0,0,1-3.444,6.719,97.432,97.432,0,0,1-21.156,12.215,8.691,8.691,0,0,1-7.594-.366,8.272,8.272,0,0,1-4.185-5.916,17.26,17.26,0,0,0-17.311-14.393c-.66,0-1.338.027-2.016.08a67.708,67.708,0,0,1-13.973,0A17.293,17.293,0,0,0,80.762,200.98a8.258,8.258,0,0,1-4.185,5.916,8.68,8.68,0,0,1-7.6.366,97.807,97.807,0,0,1-21.156-12.215,8.588,8.588,0,0,1-3.444-6.71,8.276,8.276,0,0,1,3.043-6.612c7.121-5.854,8.307-16.088,2.766-23.8a70.291,70.291,0,0,1-7.049-12.26,17.566,17.566,0,0,0-22.093-9.485,8.271,8.271,0,0,1-7.219-.66,8.585,8.585,0,0,1-4.1-6.326,95.7,95.7,0,0,1-.794-12.278,94.39,94.39,0,0,1,.8-12.287,8.619,8.619,0,0,1,4.1-6.326,8.324,8.324,0,0,1,7.317-.624,17.532,17.532,0,0,0,21.986-9.53A69.943,69.943,0,0,1,50.192,75.9c5.541-7.709,4.345-17.944-2.775-23.8a8.3,8.3,0,0,1-3.034-6.612,8.606,8.606,0,0,1,3.444-6.719A97.792,97.792,0,0,1,68.983,26.554a8.663,8.663,0,0,1,7.594.366,8.254,8.254,0,0,1,4.185,5.925,17.341,17.341,0,0,0,19.327,14.286,67.721,67.721,0,0,1,13.973,0,17.379,17.379,0,0,0,19.327-14.286,8.258,8.258,0,0,1,4.185-5.916,8.621,8.621,0,0,1,7.6-.366,97.81,97.81,0,0,1,21.156,12.215,8.588,8.588,0,0,1,3.444,6.71,8.276,8.276,0,0,1-3.043,6.612c-7.121,5.854-8.307,16.088-2.766,23.8a70.291,70.291,0,0,1,7.049,12.26,17.561,17.561,0,0,0,22.093,9.485,8.27,8.27,0,0,1,7.219.66,8.617,8.617,0,0,1,4.1,6.326,95.461,95.461,0,0,1,0,24.574Z" data-name="Path 1" transform="translate(12 -7.81)" class="color6ec177 svgShape colorStroke6ec177 svgStroke"></path></g></g><g data-name="Group 3" filter="url(#b)" transform="translate(-12.003 7.819)" fill="#000000" class="color000 svgShape"><path fill="#a034fe" stroke="#a034fe" stroke-width="6" d="M190.711,149.335a41.378,41.378,0,1,0,41.378,41.378A41.426,41.426,0,0,0,190.711,149.335Zm0,74.481a33.1,33.1,0,1,1,33.1-33.1A33.136,33.136,0,0,1,190.711,223.816Z" data-name="Path 2" transform="translate(-71.64 -81.61)" class="colorfeef34 svgShape colorStrokefeef34 svgStroke"></path></g></g></svg></g></svg>